# xmcd
#
# Track frame offsets:
#	150
#	15136
#	28988
#	44073
#	57171
#	71703
#	89073
#	104839
#	119964
#	131575
#	144564
#
# Disc length: 2149 seconds
#
# Revision: 0
# Processed by: cddbd v1.5.2PL0 Copyright (c) Steve Scherf et al.
# Submitted via: audiograbber 1.83.01
#
DISCID=ae08630b
DTITLE=Cyndi Thomson - My World
DYEAR=2001
DGENRE=Country
TTITLE0=My World
TTITLE1=I Always Liked The Best
TTITLE2=What I Really Meant To Say
TTITLE3=Things I Would Do
TTITLE4=If You Could Only See
TTITLE5=I'm Gone
TTITLE6=If You Were Mine
TTITLE7=Hope You're Doing Fine
TTITLE8=There Goes The Bay
TTITLE9=But I Want To
TTITLE10=I'll Be Seeing You
EXTD=
EXTT0=
EXTT1=
EXTT2=
EXTT3=
EXTT4=
EXTT5=
EXTT6=
EXTT7=
EXTT8=
EXTT9=
EXTT10=
PLAYORDER=
